<?xml version="1.0" encoding="UTF-8"?>
<!DOCTYPE svg PUBLIC "-//W3C//DTD SVG 1.1//EN" "http://www.w3.org/Graphics/SVG/1.1/DTD/svg11.dtd">
<!-- Creator: CorelDRAW 2020 (64 Bit) -->
<svg xmlns="http://www.w3.org/2000/svg" xml:space="preserve" width="79.8099mm" height="105.959mm" version="1.1" style="shape-rendering:geometricPrecision; text-rendering:geometricPrecision; image-rendering:optimizeQuality; fill-rule:evenodd; clip-rule:evenodd"
viewBox="0 0 9592.51 12735.37"
 xmlns:xlink="http://www.w3.org/1999/xlink"
 xmlns:xodm="http://www.corel.com/coreldraw/odm/2003">
 <defs>
  <style type="text/css">
   <![CDATA[
    .fil13 {fill:#373435}
    .fil11 {fill:#FFF212}
    .fil3 {fill:#FAB279}
    .fil1 {fill:#F58634}
    .fil4 {fill:#F27056}
    .fil2 {fill:#F05C36}
    .fil5 {fill:#EC268F}
    .fil6 {fill:#ED3237}
    .fil0 {fill:#9D98CA}
    .fil7 {fill:#52658C}
    .fil10 {fill:#66BC50}
    .fil8 {fill:#268FBC}
    .fil12 {fill:#00AFEF}
    .fil9 {fill:#00946A}
   ]]>
  </style>
    <mask id="id0">
  <linearGradient id="id1" gradientUnits="userSpaceOnUse" x1="6178.2" y1="7760.12" x2="3829.32" y2="7760.01">
   <stop offset="0" style="stop-opacity:0.290196; stop-color:white"/>
   <stop offset="0.4" style="stop-opacity:0.145098; stop-color:white"/>
   <stop offset="1" style="stop-opacity:0; stop-color:white"/>
  </linearGradient>
     <rect style="fill:url(#id1)" x="-12.02" y="-12.02" width="8323.37" height="11627.21"/>
    </mask>
 </defs>
 <g id="Camada_x0020_1">
  <metadata id="CorelCorpID_0Corel-Layer"/>
  <g id="_2742218882752">
   <path class="fil0" d="M1644.97 5643.92l0 0c-218.51,200.68 -510.03,323.75 -830.35,323.75 -151.37,0 -296.29,-27.5 -430.3,-77.6 -136.08,-237.98 -160.28,-372.05 -283.35,-694.04 -23.62,-61.79 -43.37,-123.76 -58.97,-184.93 192.32,-22.16 364.75,-115.58 499.96,-263.65 114.87,-119.49 249.06,-185.37 394.9,-185.37 194.57,0 368.45,117.25 488.91,297.46 170.61,280.01 448.3,489.59 776.51,567.67 -8.86,-0.31 -17.75,-0.49 -26.68,-0.49 -206.74,0 -394.04,83.18 -530.64,217.2zm3868.15 297.5c-318.24,340.24 -771.1,552.97 -1273.75,552.97 -600.61,0 -1130.27,-303.67 -1448.57,-761.1l0 0c-100.53,-130.37 -241.57,-229.95 -404.61,-276.89 33.34,2.73 67.08,4.13 101.12,4.13 320.32,0 611.85,-123.06 830.36,-323.75l0 0c136.6,-134.01 323.89,-217.2 530.64,-217.2 251.05,0 473.41,122.66 615.2,306.56l0 0c245.55,352.9 616.92,614.24 1049.61,715.27z"/>
   <path class="fil1" d="M5459.33 1227.53c-337.66,-253.67 -606.03,-294.84 -1013.66,47.73 -31.57,26.54 -68.2,45.61 -107.86,59.17 -102.92,-59.07 -222.16,-92.88 -349.34,-92.88 -76.39,0 -149.92,12.24 -218.75,34.76 -58.29,-33.2 -111.19,-74.74 -157.1,-122.99 -792.43,-833.15 -1154.13,-215.4 -1609.98,-215.4 -140.59,0 -254.57,-113.97 -254.57,-254.55 0,-140.59 113.98,-254.55 254.57,-254.55 389.33,0 996.19,607.53 1555.06,-149.93 80.64,-109.31 193.17,-193.67 323.85,-239.37 652.19,92.66 1166.22,334.61 1535.57,576.91 156.87,102.91 290.76,216.3 404.78,340.68 -151.87,78.63 -275.41,183.59 -362.56,270.43z"/>
   <path class="fil2" d="M3615.95 2540.55c-198.4,-124.25 -330.37,-344.76 -330.37,-596.12 0,-388.2 314.69,-702.88 702.88,-702.88 205.62,0 390.58,88.34 519.11,229.07 3.05,3.47 6.14,6.95 9.25,10.34l6.26 7.2 0.24 -0.29c96.59,101.97 218.97,162.96 352.16,162.96 289.76,0 376.71,-184.36 454.58,-279.93 51.92,-63.75 229.64,-278.1 491.84,-413.81 358.68,391.25 520.74,891.54 582.56,1517.94 -134.47,123.58 -313.85,199.15 -510.88,199.15 -205.62,0 -391.98,-82.31 -530.37,-213.79l0 0c-239.24,-223.2 -548.28,-362.75 -830.61,-362.75 -413.29,0 -739.51,262.78 -916.66,442.91z"/>
   <path class="fil3" d="M2270.74 1552.41c211.6,0 383.12,171.54 383.12,383.14 0,211.59 -171.53,383.12 -383.12,383.12 -109.27,0 -207.82,-45.73 -277.61,-119.1 -445.2,-468.08 -648.41,-121.01 -904.53,-121.01 -78.98,0 -143.02,-64.04 -143.02,-143.02 0,-78.99 64.04,-143.02 143.02,-143.02 218.74,0 559.69,341.32 873.66,-84.23 69.75,-94.56 181.95,-155.89 308.47,-155.89z"/>
   <path class="fil4" d="M447.26 2954.43c202.45,0 366.56,164.12 366.56,366.57 0,202.43 -164.11,366.56 -366.56,366.56 -88.83,0 -170.26,-31.61 -233.71,-84.16 -11.42,-120.58 -17.28,-242.99 -17.28,-366.93 0,-62.36 0.18,-123.4 0.64,-183.18 65.52,-61.31 153.56,-98.86 250.36,-98.86z"/>
   <path class="fil5" d="M3317.67 5136.78l0 0c-218.51,200.68 -510.03,323.75 -830.36,323.75 -450.08,0 -843.36,-242.91 -1061.54,-600.98 -120.46,-180.22 -294.34,-297.46 -488.91,-297.46 -145.84,0 -280.04,65.88 -394.9,185.37 -135.22,148.08 -307.64,241.49 -499.96,263.65 -52.9,-207.51 -57.9,-405.89 -3.2,-557.62 52.86,-146.68 135.08,-251.09 272.63,-280.41 -54.64,-217.02 -90.78,-442.63 -106.38,-674.61 126.27,43.7 239.43,119.89 332.29,221.59 115.93,122.73 251.72,190.4 399.52,190.4 208.04,0 321.85,-85.65 399.69,-174.84 137.91,219.98 382.49,366.27 661.3,366.27 228.23,0 433.54,-98.06 589.41,-268.77 114.87,-119.48 249.05,-185.37 394.9,-185.37 194.57,0 368.45,117.26 488.91,297.48 218.17,358.06 611.45,600.97 1061.54,600.97 320.32,0 611.85,-123.06 830.36,-323.75l0 0c136.6,-134.01 323.88,-217.2 530.62,-217.2 161.85,0 311.74,50.99 435.84,136.48 -3.2,13.22 -6.47,26.41 -9.81,39.56 51.89,21.35 79.82,44.92 102.69,66.12 42.85,39.72 67.93,71.08 88.85,110.81 20.9,39.72 37.63,87.8 45.99,140.07 8.37,52.27 8.37,108.7 3.14,191.3 -5.23,82.57 -15.67,191.29 -37.63,316.73 -21.95,125.43 -55.38,267.58 -101.39,412.87 -45.99,145.3 -104.52,293.74 -149.47,398.27 -26.73,62.15 -48.64,108.79 -67.52,145.38 -95.01,16.03 -192.62,24.44 -292.19,24.44 -600.61,0 -1130.27,-303.68 -1448.57,-761.1l0 0c-141.79,-183.91 -364.16,-306.56 -615.2,-306.56 -206.74,0 -394.04,83.18 -530.64,217.2z"/>
   <path class="fil6" d="M5362.97 4222.43l0 0c-218.51,200.68 -510.03,323.75 -830.36,323.75 -450.08,0 -843.36,-242.91 -1061.54,-600.97 -120.46,-180.22 -294.34,-297.48 -488.91,-297.48 -145.85,0 -280.04,65.89 -394.9,185.37 -155.87,170.71 -361.18,268.77 -589.41,268.77 -430.79,0 -779.99,-349.19 -779.99,-779.96 0,-430.77 349.19,-779.97 779.99,-779.97 228.16,0 433.41,98.02 584.79,263.76 115.91,122.73 251.72,190.4 399.52,190.4 321.53,0 418.02,-204.58 504.42,-310.64 86.42,-106.05 486.42,-587.82 1046.02,-587.82 282.33,0 591.37,139.55 830.61,362.75l0 0c138.39,131.48 324.75,213.79 530.37,213.79 197.03,0 376.41,-75.56 510.88,-199.15 23.26,235.67 32.34,489.15 32.34,761.44 0,313.2 -37.39,616.65 -107.38,905.24 -124.1,-85.49 -273.99,-136.48 -435.84,-136.48 -206.74,0 -394.03,83.18 -530.62,217.2z"/>
   <path class="fil7" d="M5637.01 6850.48c-240.02,178.55 -559.6,340.29 -932.79,340.29 -374.06,0 -783.48,-184.89 -1100.44,-480.59l0 0c-183.34,-174.19 -430.23,-283.22 -702.65,-283.22 -343.91,0 -647.2,173.68 -827.35,437.81l0 0c-176.85,257.56 -404.57,477.51 -668.59,645.42 -126.42,-169.82 -244.86,-371.62 -355.66,-603.29 -98,-204.89 -183.81,-460.96 -244.86,-720.53 -124.89,3.64 -255.16,-27.8 -362.29,-199.42 -21.47,-34.4 -40.66,-66.48 -58.04,-96.87 134.01,50.1 278.93,77.6 430.3,77.6 320.31,0 611.84,-123.06 830.35,-323.75l0 0c136.6,-134.01 323.89,-217.2 530.64,-217.2 8.93,0 17.82,0.18 26.68,0.49 59.75,14.22 121.15,24.06 183.91,29.18 163.04,46.93 304.09,146.51 404.61,276.89l0 0c318.29,457.44 847.95,761.1 1448.57,761.1 502.64,0 955.5,-212.73 1273.75,-552.97l-0.77 -0.19c128.4,30.07 262.17,46.02 399.72,46.02 99.57,0 197.17,-8.4 292.19,-24.44 -12.87,24.96 -24.33,45.25 -34.93,62.63 -26.12,42.85 -47.02,67.94 -72.1,87.79 -25.08,19.87 -54.36,34.51 -91.99,49.15 -37.62,14.63 -83.63,29.27 -106.62,36.59 -22.99,7.31 -22.99,7.31 -37.62,48.06 -14.64,40.77 -43.91,122.32 -82.6,229.98 -38.67,107.66 -86.74,241.45 -136.93,362.7l-4.46 10.77z"/>
   <path class="fil8" d="M5153.82 8263.65c-125.94,22.36 -255.53,34.06 -387.9,34.06 -810.01,0 -1517.82,-437.17 -1910.49,-1081.58 -168.58,-252.25 -395.31,-435.94 -652.49,-505.14 180.3,-175.68 426.56,-284.03 698.17,-284.03 272.43,0 519.31,109.03 702.65,283.22l0 0c316.96,295.7 726.38,480.59 1100.44,480.59 373.18,0 692.76,-161.74 932.79,-340.29 -48.8,116.93 -99.58,222.27 -152.32,322.68 -54.36,103.5 -110.81,201.75 -168.3,293.74 -57.49,91.98 -116.02,177.72 -153.67,227.88 -37.62,50.17 -54.35,64.8 -62.72,87.78 -8.35,23 -8.35,54.37 -2.08,111.86 6.27,57.49 18.81,141.12 32.4,227.87 7.21,46.13 14.74,93.15 23.5,141.36z"/>
   <path class="fil9" d="M4211.38 10783.68l0 0c-210.54,193.38 -491.45,311.96 -800.11,311.96 -433.69,0 -812.64,-234.06 -1022.87,-579.09 -116.05,-173.65 -283.59,-286.62 -471.08,-286.62 -140.53,0 -269.83,63.47 -380.5,178.62 -150.19,164.47 -348.03,258.98 -567.94,258.98 -415.08,0 -751.56,-336.48 -751.56,-751.56 0,-68.03 9.09,-133.94 26.03,-196.61 11.75,-13.43 27.63,-26.31 50.37,-39.57 37.64,-21.96 94.09,-44.94 157.85,-70.05 63.76,-25.08 134.86,-52.25 226.84,-87.8 91.98,-35.54 204.87,-79.43 311.49,-127.52 106.61,-48.08 206.97,-100.34 289.54,-154.7l6.74 -4.46c92.04,43.43 175.25,105.67 246.18,183.32 111.69,118.26 242.55,183.46 384.96,183.46 309.82,0 402.79,-197.13 486.04,-299.33 83.26,-102.18 468.7,-566.39 1007.91,-566.39 272.05,0 569.83,134.47 800.35,349.53l0 0c133.34,126.69 312.92,206 511.04,206 250.12,0 470.72,-126.33 601.75,-318.42l0 0c15.64,-22.78 31.85,-45.13 48.57,-67.08l6.11 10.38c42.86,72.13 90.94,139.01 136.92,193.36 46.01,54.36 89.92,96.18 140.08,139.04 50.17,42.85 106.62,86.75 183.97,132.74 77.36,46.01 175.62,94.07 301.04,144.25 125.44,50.18 278.06,102.44 458.91,168.29 180.83,65.87 389.9,145.3 567.58,215.32 177.7,70.05 324.05,130.68 475.61,201.75 151.57,71.07 308.36,152.62 453.66,237.27 70.08,40.84 137.49,82.4 202.45,124.24 -227.86,657.77 -852.76,1130.15 -1588.07,1130.15 -578.74,0 -1089.1,-292.61 -1395.79,-733.36l0 0c-136.62,-177.21 -350.89,-295.4 -592.8,-295.4 -199.21,0 -379.66,80.14 -511.28,209.28z"/>
   <path class="fil10" d="M4735.02 11686.02l0 0c-159.13,146.15 -371.43,235.78 -604.7,235.78 -327.76,0 -614.17,-176.9 -773.06,-437.64 -87.72,-131.26 -214.34,-216.63 -356.03,-216.63 -106.21,0 -203.93,47.97 -287.58,135 -113.5,124.3 -263.03,195.72 -429.24,195.72 -313.7,0 -568,-254.29 -568,-568 0,-313.71 254.3,-568.02 568,-568.02 22.87,0 45.42,1.36 67.58,4.01 12.64,16.13 24.78,32.91 36.42,50.31 210.23,345.02 589.18,579.09 1022.87,579.09 308.65,0 589.57,-118.58 800.11,-311.96l0 0c131.62,-129.13 312.08,-209.28 511.28,-209.28 241.91,0 456.18,118.18 592.8,295.4l0 0c306.69,440.76 817.05,733.36 1395.79,733.36 708.59,0 1314.7,-438.65 1561.73,-1059.19 31.07,-7.27 61.14,-17.16 90.01,-29.4 47.06,31.15 92.81,62.36 137.37,93.43 124.39,86.77 239.39,172.49 340.78,262.38 101.39,89.89 189.18,183.97 272.81,276.99 83.62,93.04 163.06,185.02 234.13,274.92 71.09,89.9 133.8,177.69 226.83,343.89 5.76,10.28 11.62,20.87 17.6,31.71 -133.53,78.57 -288.82,123.92 -454.71,123.92 -233.27,0 -445.56,-89.62 -604.69,-235.78l0 0c-99.48,-97.58 -235.88,-158.16 -386.44,-158.16 -182.81,0 -344.76,89.33 -448.02,223.26l0 0c-231.78,333.11 -617.5,554.27 -1054.9,554.27 -3.25,0 -6.45,-0.1 -9.69,-0.12 -3.22,0.02 -6.45,0.12 -9.7,0.12 -437.39,0 -823.1,-221.15 -1054.9,-554.27l0 0c-103.26,-133.93 -265.19,-223.26 -448.02,-223.26 -150.56,0 -286.95,60.56 -386.43,158.16z"/>
   <path class="fil11" d="M5556.81 12384.02l0 0c-90.28,82.9 -210.7,133.75 -343.03,133.75 -185.94,0 -348.4,-100.35 -438.53,-248.27 -49.76,-74.45 -121.59,-122.87 -201.97,-122.87 -60.24,0 -115.67,27.21 -163.12,76.57 -64.4,70.5 -149.21,111.02 -243.5,111.02 -177.96,0 -322.2,-144.24 -322.2,-322.2 0,-45.67 9.51,-89.1 26.65,-128.46 82.09,24.82 169.09,38.23 259.22,38.23 122.69,0 239.57,-24.81 345.96,-69.58 30.42,16.51 62.94,25.22 96.99,25.22 132.84,0 172.69,-84.52 208.38,-128.34 28.15,-34.53 136.84,-165.54 294.86,-219.42 14.82,-1.21 29.81,-1.81 44.94,-1.81 182.82,0 344.76,89.33 448.02,223.26l0 0c231.8,333.11 617.51,554.27 1054.9,554.27 3.25,0 6.48,-0.1 9.7,-0.12 3.23,0.02 6.44,0.12 9.69,0.12 437.4,0 823.12,-221.15 1054.9,-554.27l0 0c103.26,-133.93 265.2,-223.26 448.02,-223.26 15.14,0 30.14,0.61 44.96,1.81 158.02,53.89 266.68,184.88 294.82,219.42 35.69,43.82 75.56,128.34 208.39,128.34 34.06,0 66.56,-8.7 96.98,-25.22 106.39,44.77 223.28,69.58 345.97,69.58 90.13,0 177.14,-13.41 259.23,-38.23 17.13,39.36 26.65,82.79 26.65,128.46 0,177.94 -144.27,322.2 -322.21,322.2 -94.29,0 -179.11,-40.52 -243.48,-111.03 -47.46,-49.35 -102.88,-76.57 -163.14,-76.57 -80.38,0 -152.21,48.44 -201.98,122.88 -90.12,147.92 -252.6,248.27 -438.53,248.27 -132.31,0 -252.74,-50.84 -343,-133.75l0 0c-56.44,-55.36 -133.81,-89.71 -219.22,-89.71 -103.7,0 -195.56,50.66 -254.15,126.63l0 0c-131.48,188.97 -350.29,314.42 -598.4,314.42 -1.85,0 -3.67,-0.06 -5.49,-0.07 -1.84,0.01 -3.67,0.07 -5.5,0.07 -248.12,0 -466.92,-125.46 -598.41,-314.42l0 0c-58.57,-75.97 -150.43,-126.63 -254.13,-126.63 -85.41,0 -162.79,34.35 -219.21,89.71zm-2265.56 -563.02c116.69,0 211.27,94.59 211.27,211.27 0,116.68 -94.58,211.27 -211.27,211.27 -60.24,0 -114.6,-25.22 -153.06,-65.68 -245.52,-258.1 -357.57,-66.73 -498.8,-66.73 -43.55,0 -78.86,-35.3 -78.86,-78.86 0,-43.56 35.31,-78.86 78.86,-78.86 120.61,0 308.62,188.22 481.78,-46.45 38.46,-52.13 100.31,-85.96 170.08,-85.96z"/>
   <path class="fil12" d="M2202.95 6710.98c257.17,69.21 483.91,252.9 652.49,505.14 392.67,644.41 1100.48,1081.58 1910.49,1081.58 132.37,0 261.96,-11.71 387.9,-34.06 7.72,42.48 16.41,85.87 26.68,130.42 21.95,95.12 51.2,195.48 84.66,284.33 31.85,84.59 67.48,158.75 107.81,227.92 -16.71,21.95 -32.92,44.31 -48.56,67.1l0 0c-131.03,192.09 -351.63,318.42 -601.75,318.42 -198.12,0 -377.7,-79.3 -511.04,-206l0 0c-230.52,-215.06 -528.29,-349.53 -800.35,-349.53 -539.21,0 -924.65,464.22 -1007.91,566.39 -83.26,102.2 -176.23,299.33 -486.04,299.33 -142.42,0 -273.27,-65.2 -384.96,-183.46 -70.93,-77.64 -154.13,-139.89 -246.18,-183.32 79.37,-52.98 142.18,-107.9 196.06,-162.79 55.4,-56.44 101.38,-112.9 137.97,-174.57 36.59,-61.67 63.76,-128.56 81.54,-193.39 17.78,-64.8 26.13,-127.51 29.27,-295.8 2.45,-131.51 1.72,-327.52 3.76,-544.61 -115.44,-95.32 -225.24,-213.7 -329.6,-353.91 264.04,-167.9 491.72,-387.86 668.59,-645.42l0 0c37.94,-55.55 81.24,-107.04 129.18,-153.79z"/>
   <path class="fil13" style="mask:url(#id0)" d="M3316.54 0c925.72,0 1630.36,307.96 2100.56,616.42 835.91,548.35 1019.71,1393.9 1019.71,2620.05 0,327.54 -40.88,644.42 -117.19,944.79 51.89,21.35 79.82,44.92 102.69,66.12 42.85,39.72 67.93,71.08 88.85,110.81 20.9,39.72 37.63,87.8 45.99,140.07 8.37,52.27 8.37,108.7 3.14,191.3 -5.23,82.57 -15.67,191.29 -37.63,316.73 -21.95,125.43 -55.38,267.58 -101.39,412.87 -45.99,145.3 -104.52,293.74 -149.47,398.27 -44.94,104.52 -76.31,165.16 -102.45,208.02 -26.12,42.85 -47.02,67.94 -72.1,87.79 -25.08,19.87 -54.36,34.51 -91.99,49.15 -37.62,14.63 -83.63,29.27 -106.62,36.59 -22.99,7.31 -22.99,7.31 -37.62,48.06 -14.64,40.77 -43.91,122.31 -82.6,229.98 -38.67,107.66 -86.74,241.45 -136.93,362.7 -50.17,121.26 -102.43,229.98 -156.78,333.45 -54.36,103.5 -110.81,201.75 -168.3,293.74 -57.49,91.98 -116.02,177.72 -153.67,227.88 -37.62,50.17 -54.35,64.8 -62.72,87.78 -8.35,23 -8.35,54.37 -2.08,111.86 6.27,57.49 18.81,141.12 32.39,227.87 13.61,86.75 28.25,176.67 50.19,271.78 21.95,95.12 51.2,195.48 84.66,284.33 33.45,88.85 71.07,166.2 113.93,238.33 42.86,72.12 90.94,139.01 136.92,193.36 46.01,54.36 89.92,96.18 140.08,139.04 50.17,42.85 106.62,86.75 183.97,132.74 77.36,46.01 175.62,94.07 301.04,144.25 125.44,50.18 278.06,102.44 458.91,168.29 59.11,21.43 121.29,44.48 184.4,68.17l0.58 0.22 0.04 0.01 0.48 0.19 12.46 4.66 5.18 1.94 1.31 0.5 6.51 2.44 1.24 0.47 5.25 1.98 3.82 1.44 2.69 1.01 6.41 2.4 0.12 0.04 6.51 2.46 2.45 0.93 4.06 1.54 5.04 1.91 1.49 0.55 6.53 2.48 1.08 0.41 5.44 2.04 3.67 1.41 2.85 1.07 6.26 2.37 0.26 0.11 6.53 2.48 2.3 0.88 4.23 1.6 4.88 1.85 1.63 0.62 6.51 2.48 0.94 0.36 5.59 2.13 3.51 1.33 3 1.14 6.07 2.31 0.43 0.18 6.51 2.48 2.14 0.82 4.35 1.67 4.71 1.79 1.79 0.69 6.5 2.49 0.77 0.29 5.71 2.19 3.33 1.27 3.15 1.21 5.9 2.25 0.58 0.23 6.45 2.48 1.97 0.76 4.48 1.73 4.52 1.73 1.94 0.75 6.44 2.46 0.61 0.24 5.81 2.24 3.16 1.21 3.27 1.26 5.67 2.19 0.73 0.28 6.39 2.48 1.8 0.69 4.59 1.78 4.3 1.67 2.06 0.79 6.37 2.45 0.46 0.18 5.89 2.28 2.96 1.14 3.38 1.31 0.19 0.07 12.42 4.81 0.02 0.01 1.62 0.64 4.68 1.81 4.09 1.59 2.18 0.85 6.27 2.43 0.29 0.12 5.95 2.32 2.75 1.07 3.47 1.35 5.2 2.03 1 0.4 6.19 2.42 1.45 0.56 4.71 1.84 3.88 1.53 2.27 0.89 6.13 2.4 0.16 0.05 5.96 2.34 2.56 1 3.53 1.38 4.94 1.94 1.13 0.44 6.06 2.38 1.26 0.5 4.76 1.86 3.63 1.43 2.37 0.94 5.99 2.36 8.32 3.28 8.26 3.26 8.22 3.26 8.16 3.22 8.14 3.23 8.09 3.22 8.05 3.2 8 3.2 7.97 3.17 0.01 0 7.92 3.17 7.9 3.16 7.85 3.16 7.82 3.15 0.01 0 7.78 3.14 0.01 0 7.73 3.14 0.01 0 7.7 3.11 0.02 0 7.68 3.12 7.64 3.11 7.62 3.1 0.01 0 7.58 3.11 7.56 3.09 0.01 0 7.54 3.09 7.5 3.09 7.49 3.09 7.45 3.08 0.01 0 7.43 3.09 7.39 3.08 0.01 0 7.37 3.06 0.02 0 7.34 3.08 0.01 0 7.33 3.08 7.31 3.08 0.02 0 7.28 3.08 7.28 3.06 7.26 3.09 7.24 3.08 0.01 0 7.22 3.08 7.21 3.08 7.2 3.09 7.18 3.09 7.18 3.1 7.15 3.09 7.14 3.1 7.14 3.11 7.13 3.12 7.12 3.11 7.1 3.12 7.09 3.14 7.09 3.12 7.09 3.16 7.09 3.15 7.07 3.17 7.08 3.17 7.07 3.2 0.01 0 7.06 3.19 7.08 3.21 7.07 3.22 7.07 3.22 7.08 3.25 7.08 3.26 7.07 3.27 7.09 3.28 7.09 3.29 7.09 3.32 7.09 3.32c151.57,71.07 308.36,152.62 453.66,237.27l3.28 1.91 3.28 1.92 0.24 0.13 3.03 1.78 3.28 1.92 0.47 0.29 2.79 1.63 3.27 1.91 0.71 0.43 2.55 1.49 3.26 1.92 0.95 0.56 2.31 1.36 3.25 1.92 1.19 0.71 2.06 1.21 3.25 1.92 1.42 0.85 1.8 1.07 3.25 1.95 1.66 0.97 1.57 0.95 3.21 1.94 1.9 1.13 1.33 0.79 3.21 1.94 2.13 1.27 1.09 0.65 3.21 1.94 2.34 1.43 0.87 0.5 3.2 1.94 2.58 1.56 0.61 0.38 3.19 1.92 2.81 1.71 0.38 0.24 3.19 1.94 3.04 1.84 0.14 0.1 3.17 1.94 3.17 1.95 0.1 0.05 3.09 1.89 3.17 1.95 0.3 0.19 2.86 1.74 3.16 1.95 0.55 0.34 2.61 1.61 3.14 1.95 0.78 0.48 2.37 1.45 3.15 1.95 1.01 0.64 2.14 1.32 3.14 1.95 1.24 0.77 1.9 1.17 3.12 1.95 1.45 0.91 1.67 1.03 3.12 1.96 1.69 1.06 1.42 0.89 3.12 1.95 1.91 1.2 1.19 0.76 3.11 1.96 2.14 1.33 0.96 0.61 3.11 1.96 2.36 1.48 0.73 0.47 3.1 1.96 2.57 1.63 0.52 0.31 3.08 1.96 2.8 1.77 0.3 0.19 3.08 1.95 3 1.92 0.06 0.05 3.09 1.95 3.06 1.96 0.16 0.11 2.91 1.85 3.05 1.96 0.38 0.24 2.68 1.73 3.05 1.95 0.61 0.38 2.43 1.57 3.05 1.97c-227.86,657.77 -852.76,1130.17 -1588.07,1130.17 -578.74,0 -1089.1,-292.62 -1395.79,-733.38l0 0c-136.62,-177.21 -350.89,-295.4 -592.8,-295.4 -199.21,0 -379.66,80.14 -511.28,209.28l0 0c-210.56,193.38 -491.45,311.96 -800.11,311.96 -433.66,0 -812.64,-234.06 -1022.85,-579.09 -116.07,-173.65 -283.62,-286.62 -471.1,-286.62 -140.53,0 -269.83,63.47 -380.52,178.62 -150.19,164.47 -348.02,258.98 -567.92,258.98 -415.1,0 -751.57,-336.48 -751.57,-751.56 0,-55.93 6.14,-110.42 17.74,-162.85l-13.49 0c1.01,-2.18 2.08,-4.31 3.19,-6.44 12.54,-24.04 31.33,-44.94 68.97,-66.89 37.64,-21.96 94.09,-44.94 157.85,-70.05 63.76,-25.08 134.86,-52.25 226.84,-87.8 91.98,-35.54 204.87,-79.43 311.49,-127.52 106.61,-48.09 206.97,-100.34 289.54,-154.7 82.57,-54.35 147.4,-110.81 202.8,-167.25 55.4,-56.44 101.38,-112.9 137.97,-174.57 36.59,-61.67 63.76,-128.57 81.54,-193.39 17.78,-64.81 26.13,-127.51 29.27,-295.8 2.45,-131.51 1.72,-327.52 3.76,-544.61 -255.26,-210.78 -482.98,-534.27 -685.26,-957.2 -98,-204.89 -183.81,-460.96 -244.86,-720.53 -124.89,3.64 -255.16,-27.8 -362.29,-199.42 -189.58,-303.69 -202.58,-427.81 -341.39,-790.91 -103.76,-271.42 -132.97,-546.09 -62.16,-742.55 52.86,-146.68 135.08,-251.09 272.63,-280.41 -75,-297.93 -115.18,-612.05 -115.18,-936.61 0,-965.3 41.53,-1616.73 508.65,-2187 460.01,-561.57 1335.8,-1049.47 2611.63,-1049.47z"/>
  </g>
 </g>
</svg>
